# xmcd
#
# Track frame offsets:
#	150
#	15242
#	32224
#	49096
#	69026
#	92595
#	122689
#	139180
#	166014
#	184552
#	204700
#	221240
#
# Disc length: 3189 seconds
#
# Revision: 1
# Processed by: cddbd v1.5.2PL0 Copyright (c) Steve Scherf et al.
# Submitted via: EZCDAudioConverter 8.0.2.1
#
DISCID=9c0c730c
DTITLE=Đàm Vĩnh Hưng, Mỹ Tâm, Quang Dũng, Việt Quang - Tứ Quí Sài Gòn
DYEAR=2002
DGENRE=World Pop
TTITLE0=Mỹ Tâm - Xuống phố mùa thu
TTITLE1=Việt Quang - Sẽ không như thế
TTITLE2=Đàm Vĩnh Hưng - Tình ơi
TTITLE3=Việt Quang - Nói với em
TTITLE4=Mỹ Tâm - Sương đêm
TTITLE5=Quang Dũng - Nhớ mưa xưa
TTITLE6=Đàm Vĩnh Hưng - Nhà em
TTITLE7=Quang Dũng - Tình sương khói
TTITLE8=Việt Quang - Lang thang về đâu
TTITLE9=Quang Dũng - Tình xanh
TTITLE10=Mỹ Tâm - Giấu em vào nỗi nhớ
TTITLE11=Quang Dũng - Mưa đêm
EXTD=
EXTT0=
EXTT1=
EXTT2=
EXTT3=
EXTT4=
EXTT5=
EXTT6=
EXTT7=
EXTT8=
EXTT9=
EXTT10=
EXTT11=
PLAYORDER=
